<?xml version="1.0" standalone="no"?>
<!DOCTYPE svg PUBLIC "-//W3C//DTD SVG 20010904//EN"
 "http://www.w3.org/TR/2001/REC-SVG-20010904/DTD/svg10.dtd">
<svg version="1.0" xmlns="http://www.w3.org/2000/svg"
 width="512.000000pt" height="512.000000pt" viewBox="0 0 512.000000 512.000000"
 preserveAspectRatio="xMidYMid meet">

<g transform="translate(0.000000,512.000000) scale(0.100000,-0.100000)"
fill="#000000" stroke="none">
<path d="M433 5105 c-200 -43 -376 -221 -418 -422 -22 -102 -22 -4144 0 -4246
43 -203 219 -379 422 -422 102 -22 4144 -22 4246 0 203 43 379 219 422 422 22
102 22 4144 0 4246 -43 203 -219 379 -422 422 -98 21 -4155 21 -4250 0z m1957
-1345 l0 -1030 -1030 0 -1030 0 2 943 3 942 24 48 c27 55 72 93 133 112 35 11
226 14 971 14 l927 1 0 -1030z m2237 1015 c30 -9 65 -29 88 -52 75 -73 70 0
73 -1050 l2 -943 -1030 0 -1030 0 0 1030 0 1030 923 0 c789 0 931 -2 974 -15z
m-2237 -3415 l0 -1030 -942 2 c-1044 3 -977 -1 -1047 69 -70 70 -66 3 -69
1047 l-2 942 1030 0 1030 0 0 -1030z m2398 88 c-3 -1044 1 -977 -69 -1047 -70
-70 -3 -66 -1046 -69 l-943 -2 0 1030 0 1030 1030 0 1030 0 -2 -942z"/>
<path d="M3632 4389 c-254 -37 -472 -229 -548 -484 -13 -42 -18 -94 -19 -175
0 -100 4 -126 29 -203 67 -204 224 -363 426 -432 74 -25 100 -28 205 -29 88 0
136 4 180 18 321 97 529 408 485 727 -22 157 -81 277 -191 388 -109 109 -230
169 -383 190 -87 12 -95 12 -184 0z m243 -361 c192 -99 243 -338 108 -514 -53
-70 -152 -115 -253 -115 -187 -1 -331 142 -331 329 0 150 82 264 229 319 60
22 186 12 247 -19z"/>
<path d="M980 1871 c-69 -36 -103 -119 -80 -194 9 -32 40 -70 133 -164 l121
-123 -121 -123 c-67 -67 -127 -135 -132 -150 -34 -90 20 -192 117 -222 13 -4
45 -4 70 0 42 6 57 17 174 133 l129 126 117 -117 c150 -149 196 -170 288 -128
51 23 85 70 92 126 8 75 -3 93 -136 227 l-126 128 126 128 c104 104 127 134
133 165 25 131 -71 227 -202 202 -31 -6 -61 -29 -166 -133 l-127 -126 -123
121 c-67 66 -132 126 -144 132 -33 17 -104 13 -143 -8z"/>
</g>
</svg>
